# xmcd
#
# Track frame offsets: 
#        150
#        19272
#        47971
#        61556
#        80306
#        99107
#        113820
#        128676
#        146510
#        161436
#        178677
#        191973
#        209510
#        225016
#        243567
#        262768
#
# Disc length: 3781 seconds
#
# Revision: 0
# Processed by: cddbd v1.5.2PL0 Copyright (c) Steve Scherf et al.
# Submitted via: ExactAudioCopy v0.99pb5
#
DISCID=c90ec310
DTITLE=Ray Charles - Ray Charles Sings for Lovers
DYEAR=2009
DGENRE=
TTITLE0=I Can't Stop Loving You
TTITLE1=How Long Has This Been Going On
TTITLE2=You Are My Sunshine
TTITLE3=Till There Was You
TTITLE4=Baby, It's Cold Outside
TTITLE5=You Don't Know Me
TTITLE6=Love Is Here to Stay
TTITLE7=How Deep Is the Ocean
TTITLE8=Here We Go Again
TTITLE9=Stella by Starlight
TTITLE10=Gee, Baby Ain't I Good to You
TTITLE11=Ruby
TTITLE12=Come Live with Me
TTITLE13=Something
TTITLE14=A Song for You
TTITLE15=Ev'ry Time We Say Goodbye
EXTD=
EXTT0=
EXTT1=
EXTT2=
EXTT3=
EXTT4=
EXTT5=
EXTT6=
EXTT7=
EXTT8=
EXTT9=
EXTT10=
EXTT11=
EXTT12=
EXTT13=
EXTT14=
EXTT15=
PLAYORDER=
